<svg width="14" height="25" fill="none" xmlns="http://www.w3.org/2000/svg"><path d="M4.168.58 12.746.5a.77.77 0 0 1 .674 1.2L8.94 8.386h3.798v.002a.772.772 0 0 1 .596 1.262L1.367 24.218a.772.772 0 0 1-1.312-.776l4.109-10.345-3.08-.03a.773.773 0 0 1-.797-.982L3.432 1.14h.002A.77.77 0 0 1 4.168.58Z" fill="#383838"/><path fill-rule="evenodd" clip-rule="evenodd" d="m12.78 1.271-8.606.08-3.145 10.946 4.266.04L.77 23.73 12.738 9.16H7.49l5.29-7.889Z" fill="#FCDB33"/><path fill-rule="evenodd" clip-rule="evenodd" d="m6.621 1.383-2.39.045-3.014 10.808 4.103.094L.771 23.73l6.106-12.481-3.639-.621 3.383-9.244Z" fill="#FF0"/></svg>